<?xml version="1.0" standalone="no"?>
<!DOCTYPE svg PUBLIC "-//W3C//DTD SVG 20010904//EN"
 "http://www.w3.org/TR/2001/REC-SVG-20010904/DTD/svg10.dtd">
<svg version="1.0" xmlns="http://www.w3.org/2000/svg"
 width="512.000000pt" height="512.000000pt" viewBox="0 0 512.000000 512.000000"
 preserveAspectRatio="xMidYMid meet">

<g transform="translate(0.000000,512.000000) scale(0.100000,-0.100000)"
fill="#000000" stroke="none">
<path d="M1400 4429 c-470 -58 -867 -371 -1009 -794 -42 -125 -61 -247 -61
-385 0 -233 63 -429 214 -665 174 -273 533 -628 1376 -1366 367 -320 596 -516
616 -527 27 -14 38 -7 199 132 963 829 1508 1336 1701 1581 139 176 238 348
290 501 79 235 73 511 -17 757 -177 490 -718 824 -1243 768 -308 -34 -497
-128 -752 -373 -84 -82 -156 -148 -160 -148 -4 0 -68 60 -143 133 -191 187
-317 271 -500 332 -153 51 -361 73 -511 54z"/>
</g>
</svg>
