<?xml version="1.0" standalone="no"?>
<!DOCTYPE svg PUBLIC "-//W3C//DTD SVG 20010904//EN"
 "http://www.w3.org/TR/2001/REC-SVG-20010904/DTD/svg10.dtd">
<svg version="1.0" xmlns="http://www.w3.org/2000/svg"
 width="512.000000pt" height="512.000000pt" viewBox="0 0 512.000000 512.000000"
 preserveAspectRatio="xMidYMid meet">

<g transform="translate(0.000000,512.000000) scale(0.100000,-0.100000)"
fill="#000000" stroke="none">
<path d="M780 4265 c-41 -8 -109 -14 -151 -14 -61 -1 -81 -5 -103 -22 -36 -29
-33 -54 17 -118 89 -113 314 -449 305 -455 -2 -1 -24 -10 -49 -19 -56 -21
-122 -76 -138 -115 -7 -16 -11 -55 -9 -88 3 -59 3 -59 48 -81 25 -13 57 -23
71 -23 107 0 249 124 249 219 0 75 -35 143 -212 410 -60 90 -107 165 -106 167
2 1 55 10 118 20 126 18 236 14 295 -10 l35 -15 0 43 c0 49 -22 75 -82 101
-46 18 -180 19 -288 0z"/>
<path d="M1900 4094 c-30 -8 -93 -33 -140 -56 -160 -78 -289 -241 -335 -423
-19 -76 -19 -234 0 -310 20 -78 84 -210 127 -259 l34 -39 454 462 c250 254
456 466 458 471 10 27 -180 131 -281 155 -78 19 -245 18 -317 -1z"/>
<path d="M3500 4051 c-5 -11 -10 -35 -10 -53 0 -31 -54 -316 -62 -323 -2 -2
-26 3 -55 10 -61 16 -89 11 -125 -23 -36 -33 -35 -66 0 -102 59 -59 162 -64
212 -10 32 34 42 65 77 247 15 78 33 143 38 143 20 -1 137 -103 167 -145 32
-45 52 -49 63 -14 15 47 -32 114 -130 185 -22 15 -59 45 -82 66 -47 42 -77 48
-93 19z"/>
<path d="M2121 3394 c-349 -352 -449 -459 -441 -469 17 -21 150 -83 212 -99
123 -32 211 -29 379 10 20 4 35 -3 75 -40 l50 -45 189 189 189 189 -19 25
c-11 13 -32 40 -48 59 -23 28 -26 39 -18 59 5 14 15 61 21 105 20 135 -14 295
-87 416 -19 31 -38 57 -42 57 -4 0 -211 -205 -460 -456z"/>
<path d="M2632 2890 l-183 -188 40 -32 c22 -18 41 -33 44 -34 3 -1 136 145
304 334 l42 47 -32 30 -32 31 -183 -188z"/>
<path d="M2863 2897 c-77 -78 -273 -300 -273 -308 0 -6 1042 -931 1114 -989
25 -20 42 -25 89 -25 l58 0 65 -100 c268 -414 494 -920 602 -1347 l29 -113 64
4 c35 2 65 4 67 6 2 2 -10 59 -27 127 -112 453 -332 948 -632 1416 -62 97 -79
131 -79 160 0 20 -8 48 -18 62 -13 20 -941 1108 -986 1157 -9 10 -25 -1 -73
-50z"/>
<path d="M541 2494 c-41 -59 -56 -74 -69 -68 -37 16 -83 16 -107 0 -33 -21
-32 -41 4 -77 49 -48 93 -39 172 37 l45 44 60 -41 c32 -23 61 -43 63 -45 3 -2
-8 -17 -23 -33 -25 -26 -31 -28 -61 -19 -38 12 -98 3 -115 -17 -17 -21 -3 -54
33 -76 70 -42 142 -10 227 100 33 42 60 81 60 87 0 12 -54 55 -171 137 l-65
46 -53 -75z m191 -64 c59 -51 33 -58 -33 -9 -30 22 -60 44 -68 48 -8 5 -11 14
-7 20 9 14 47 -7 108 -59z"/>
<path d="M4186 2377 c-13 -23 -37 -57 -53 -74 -27 -32 -29 -32 -71 -21 -36 10
-48 10 -70 -3 -15 -8 -28 -24 -30 -36 -4 -27 51 -73 87 -73 32 0 100 43 131
82 l21 28 47 -32 c86 -58 86 -57 56 -89 -22 -23 -30 -26 -62 -18 -38 8 -89 2
-109 -14 -20 -15 -15 -36 16 -68 58 -58 150 -29 229 72 83 107 82 105 42 137
-19 15 -74 55 -122 89 l-87 62 -25 -42z m135 -79 c50 -37 74 -68 53 -68 -11 0
-134 92 -134 101 0 18 23 8 81 -33z"/>
<path d="M2145 1866 c-238 -71 -505 -162 -505 -172 0 -6 18 -58 39 -116 35
-92 53 -153 75 -250 5 -23 2 -30 -24 -43 -48 -25 -109 -84 -131 -126 -11 -23
-19 -59 -19 -88 0 -42 4 -53 26 -70 75 -59 247 6 287 107 33 81 29 215 -9 368
-5 19 5 25 108 61 125 45 215 69 223 62 2 -3 11 -41 19 -85 13 -77 13 -79 -8
-93 -45 -31 -123 -118 -144 -161 -38 -80 -39 -105 -3 -141 30 -30 34 -31 100
-27 55 3 76 9 109 32 55 38 98 108 119 191 14 58 15 81 5 154 -11 91 -94 395
-113 418 -16 18 -28 16 -154 -21z m45 -92 c21 -25 -3 -38 -140 -80 -69 -20
-144 -45 -167 -55 -42 -18 -43 -18 -53 1 -22 42 -29 38 185 105 160 51 158 50
175 29z"/>
<path d="M3036 1169 c-45 -31 -73 -56 -69 -63 4 -6 18 -26 31 -44 25 -32 25
-34 8 -69 -31 -64 2 -96 49 -48 30 29 30 37 5 93 l-19 42 41 27 c39 26 41 27
54 8 12 -16 12 -22 -1 -41 -8 -13 -15 -37 -15 -54 0 -23 4 -30 20 -30 31 0 60
36 60 73 0 31 -65 157 -81 157 -4 0 -41 -23 -83 -51z m69 3 c-41 -34 -85 -61
-89 -53 -7 10 62 60 84 60 8 1 10 -2 5 -7z"/>
</g>
</svg>
