<?xml version="1.0" standalone="no"?>
<!DOCTYPE svg PUBLIC "-//W3C//DTD SVG 20010904//EN" "http://www.w3.org/TR/2001/REC-SVG-20010904/DTD/svg10.dtd">
<svg version="1.0" xmlns="http://www.w3.org/2000/svg" width="512.000000pt" height="512.000000pt" viewBox="0 0 512.000000 512.000000" preserveAspectRatio="xMidYMid meet">

    <g transform="translate(0.000000,512.000000) scale(0.100000,-0.100000)" fill="#000000" stroke="none">
        <path d="M1195 2867 c-68 -23 -101 -44 -148 -97 -110 -122 -109 -301 4 -424
67 -74 129 -100 234 -101 68 0 89 4 137 28 62 30 115 83 150 149 19 36 23 58
23 138 0 106 -15 147 -81 220 -73 80 -218 120 -319 87z" />
        <path d="M2460 2864 c-227 -82 -293 -362 -125 -529 65 -66 125 -90 225 -90
100 0 160 24 225 90 66 65 90 125 90 225 0 100 -24 160 -90 225 -82 82 -222
116 -325 79z" />
        <path d="M3740 2864 c-227 -82 -293 -362 -125 -529 65 -66 125 -90 225 -90
100 0 160 24 225 90 66 65 90 125 90 225 0 100 -24 160 -90 225 -82 82 -222
116 -325 79z" />
    </g>
</svg>
