<?xml version="1.0" standalone="no"?>
<!DOCTYPE svg PUBLIC "-//W3C//DTD SVG 20010904//EN"
 "http://www.w3.org/TR/2001/REC-SVG-20010904/DTD/svg10.dtd">
<svg version="1.0" xmlns="http://www.w3.org/2000/svg"
 width="512.000000pt" height="512.000000pt" viewBox="0 0 512.000000 512.000000"
 preserveAspectRatio="xMidYMid meet">

<g transform="translate(0.000000,512.000000) scale(0.100000,-0.100000)"
fill="#000000" stroke="none">
<path d="M3593 3921 c-59 -37 -58 -26 -63 -532 l-5 -466 -855 488 c-470 269
-877 496 -904 505 -35 12 -72 15 -131 12 -145 -8 -255 -82 -318 -216 l-32 -67
0 -1085 0 -1085 32 -67 c62 -131 173 -208 312 -216 54 -3 95 1 132 12 32 9
397 212 909 504 l855 489 5 -493 c5 -480 6 -493 26 -521 59 -79 174 -70 219
17 13 25 15 201 15 1330 0 1392 2 1339 -49 1384 -31 28 -108 32 -148 7z"/>
</g>
</svg>
