<?xml version="1.0" standalone="no"?>
<!DOCTYPE svg PUBLIC "-//W3C//DTD SVG 20010904//EN"
 "http://www.w3.org/TR/2001/REC-SVG-20010904/DTD/svg10.dtd">
<svg version="1.0" xmlns="http://www.w3.org/2000/svg"
 width="512.000000pt" height="512.000000pt" viewBox="0 0 512.000000 512.000000"
 preserveAspectRatio="xMidYMid meet">

<g transform="translate(0.000000,512.000000) scale(0.100000,-0.100000)"
fill="#000000" stroke="none">
<path d="M1100 4237 c-49 -16 -133 -102 -148 -153 -17 -60 -17 -2988 0 -3048
16 -55 99 -138 154 -154 129 -38 255 16 310 133 l24 50 0 679 0 679 23 -20
c40 -37 2420 -1404 2464 -1416 80 -21 175 21 225 100 l23 38 0 1435 0 1435
-23 38 c-50 79 -144 121 -225 100 -40 -11 -2385 -1357 -2454 -1410 l-33 -24 0
678 0 678 -24 50 c-28 60 -66 97 -126 124 -50 23 -132 26 -190 8z"/>
</g>
</svg>
