<?xml version="1.0" standalone="no"?>
<!DOCTYPE svg PUBLIC "-//W3C//DTD SVG 20010904//EN"
 "http://www.w3.org/TR/2001/REC-SVG-20010904/DTD/svg10.dtd">
<svg version="1.0" xmlns="http://www.w3.org/2000/svg"
 width="512.000000pt" height="512.000000pt" viewBox="0 0 512.000000 512.000000"
 preserveAspectRatio="xMidYMid meet">

<g transform="translate(0.000000,512.000000) scale(0.100000,-0.100000)"
fill="#000000" stroke="none">
<path d="M910 3887 c-50 -26 -50 -22 -47 -620 l2 -559 29 -25 c21 -18 37 -23
56 -20 15 3 235 131 490 284 386 231 465 283 473 306 20 61 16 64 -476 360
-254 153 -471 280 -482 282 -11 3 -31 -1 -45 -8z m478 -427 c161 -96 292 -177
292 -180 0 -3 -131 -84 -292 -180 -160 -96 -308 -185 -330 -198 l-38 -23 0
401 0 401 38 -23 c22 -13 170 -102 330 -198z"/>
<path d="M2509 3331 c-16 -16 -29 -36 -29 -45 0 -28 22 -64 47 -75 17 -8 265
-11 848 -11 l824 0 27 23 c37 33 37 81 0 114 l-27 23 -830 0 -831 0 -29 -29z"/>
<path d="M894 2257 c-20 -17 -27 -33 -27 -57 0 -24 7 -40 27 -57 l27 -23 1639
0 1639 0 27 23 c37 33 37 81 0 114 l-27 23 -1639 0 -1639 0 -27 -23z"/>
<path d="M894 1257 c-20 -17 -27 -33 -27 -57 0 -24 7 -40 27 -57 l27 -23 1639
0 1639 0 27 23 c37 33 37 81 0 114 l-27 23 -1639 0 -1639 0 -27 -23z"/>
</g>
</svg>
