<?xml version="1.0" standalone="no"?>
<!DOCTYPE svg PUBLIC "-//W3C//DTD SVG 20010904//EN"
 "http://www.w3.org/TR/2001/REC-SVG-20010904/DTD/svg10.dtd">
<svg version="1.0" xmlns="http://www.w3.org/2000/svg"
 width="512.000000pt" height="512.000000pt" viewBox="0 0 512.000000 512.000000"
 preserveAspectRatio="xMidYMid meet">

<g transform="translate(0.000000,512.000000) scale(0.100000,-0.100000)"
fill="#000000" stroke="none">
<path d="M2075 3229 c-176 -25 -348 -130 -452 -276 -72 -101 -104 -190 -128
-355 l-6 -37 -94 -3 -94 -3 154 -205 c84 -112 157 -205 162 -207 7 -2 302 385
311 408 2 5 -47 9 -109 9 l-112 0 6 60 c13 144 120 289 264 358 l78 37 495 5
495 5 3 108 3 107 -458 -1 c-252 -1 -485 -5 -518 -10z"/>
<path d="M3357 2770 l-157 -210 106 0 107 0 -5 -65 c-16 -197 -193 -375 -403
-405 -38 -5 -265 -10 -502 -10 l-433 0 0 -105 0 -105 458 0 c337 1 477 4 532
14 212 38 399 177 491 365 41 82 69 188 69 258 l0 53 110 0 110 0 -155 208
c-86 114 -159 208 -163 210 -4 1 -78 -92 -165 -208z"/>
</g>
</svg>
