<?xml version="1.0" standalone="no"?>
<!DOCTYPE svg PUBLIC "-//W3C//DTD SVG 20010904//EN"
 "http://www.w3.org/TR/2001/REC-SVG-20010904/DTD/svg10.dtd">
<svg version="1.0" xmlns="http://www.w3.org/2000/svg"
 width="512.000000pt" height="512.000000pt" viewBox="0 0 512.000000 512.000000"
 preserveAspectRatio="xMidYMid meet">

<g transform="translate(0.000000,512.000000) scale(0.100000,-0.100000)"
fill="#000000" stroke="none">
<path d="M3380 3390 c-41 -41 -28 -64 83 -152 l91 -73 -99 -7 c-265 -19 -470
-88 -645 -218 -78 -58 -160 -142 -160 -165 0 -20 44 -65 65 -65 8 0 45 27 80
60 158 147 351 233 581 260 54 6 118 10 141 8 l42 -3 -84 -68 c-47 -37 -92
-79 -102 -93 -15 -24 -15 -29 -2 -53 10 -17 24 -27 44 -29 25 -2 54 17 185
124 189 154 202 173 160 226 -33 43 -320 268 -340 268 -11 0 -29 -9 -40 -20z"/>
<path d="M1408 3143 c-23 -25 -23 -66 0 -86 16 -14 43 -17 173 -17 241 0 405
-33 562 -111 160 -80 298 -214 368 -356 85 -174 151 -261 271 -357 178 -143
391 -219 677 -243 l94 -8 -87 -68 c-93 -74 -111 -97 -101 -128 9 -27 48 -51
71 -42 29 10 322 251 334 274 26 47 5 74 -162 209 -174 142 -202 154 -234 105
-25 -38 -9 -62 88 -140 46 -37 85 -71 87 -77 4 -13 -172 0 -269 19 -216 43
-415 155 -536 301 -30 37 -77 111 -106 167 -65 128 -119 205 -199 281 -109
103 -232 177 -379 227 -139 47 -214 58 -430 64 -194 5 -206 4 -222 -14z"/>
<path d="M2363 2359 c-90 -81 -137 -113 -246 -164 -163 -76 -319 -104 -574
-105 -137 0 -156 -8 -151 -64 5 -53 29 -58 233 -52 196 6 297 21 426 65 158
53 289 131 397 236 67 66 76 91 42 125 -32 32 -55 24 -127 -41z"/>
</g>
</svg>
